<svg xmlns="http://www.w3.org/2000/svg" width="488" height="124" fill="#e63722" xmlns:v="https://vecta.io/nano"><path d="M65.9 0c.5.1.9.1 1.4.2 3.1.2 6.2.6 9.2 1.3 3.3.7 6.6 1.7 9.7 2.9 3.3 1.3 6.4 2.8 9.4 4.6 3.2 1.9 6.3 4.1 9.1 6.6 3.5 3.1 6.6 6.5 9.4 10.2 2 2.7 3.8 5.6 5.3 8.7 2.4 4.9 4.2 10 5.3 15.4.5 2.5.9 5.1 1 7.7 0 .9.1 1.8.1 2.7 0 .6.1 1.3.1 1.9-.1 3.5-.3 7-.9 10.5-.6 3.2-1.4 6.4-2.5 9.5-2.6 7.4-6.6 14.3-11.8 20.2-4.9 5.6-10.7 10.3-17.2 13.9a61.09 61.09 0 0 1-18.5 6.6c-2.2.4-4.5.8-6.8.9-.6 0-1.3.1-1.9.1-.1 0-.3.1-.4.1H60c-.1 0-.2-.1-.3-.1-2.4-.1-4.9-.4-7.3-.8-3.6-.6-7.2-1.5-10.7-2.7-5.5-1.9-10.7-4.6-15.4-7.9-3.8-2.7-7.3-5.8-10.4-9.2-2.3-2.5-4.3-5.2-6.1-8-2.6-4-4.7-8.4-6.3-12.9C2.2 78.7 1.2 75 .7 71.1.4 69.2.3 67.3.1 65.4c0-.2-.1-.3-.1-.5v-5.7c0-.1.1-.3.1-.4.1-1.3.2-2.6.4-3.9.3-3.2 1-6.3 1.8-9.3 1-3.5 2.2-6.9 3.8-10.1 1.5-3.1 3.2-6 5.1-8.8s4.1-5.4 6.5-7.8a56.54 56.54 0 0 1 8.3-7.1c3.5-2.5 7.3-4.7 11.3-6.4 3.7-1.6 7.6-2.9 11.5-3.8C52 .9 55.3.4 58.6.2c.5 0 .9-.1 1.4-.2h5.9zm54.2 67c.1-20.1-6.1-34-15.7-43.9-11-11.2-24.5-17.2-40.3-17.5-15.7-.3-29.4 4.9-40.7 15.7C12 32.1 6.1 45.3 5.7 60.9c-.3 15.5 5 29 15.9 40.1 10.9 11.2 24.4 17.1 40.2 17.4 15.6.3 29.3-4.9 40.6-15.6C114.2 91.7 119.9 78 120.1 67zm367.5 20.3c0 .2-.1.4-.1.6-.1 1.7-.5 3.3-1.2 4.8-1.3 2.9-3.6 4.6-6.6 5.5-1.7.5-3.5.7-5.2.7h-5.8c-1.6 0-3.3-.2-4.9-.6-4.1-1.1-6.6-3.7-7.6-7.7-.4-1.6-.6-3.3-.6-4.9V71.1v-.7h10.9v.8 14c0 .4 0 .8.1 1.3.3 1.7 1.3 2.7 3.1 2.9 1.2.1 2.4.1 3.6 0 1.9-.2 3-1.4 3.2-3.2v-1.1-9.5c0-.5 0-1-.1-1.5-.2-1.4-.7-2.6-1.8-3.6l-1.5-1.2-11.4-8.2c-1.1-.8-2.2-1.7-3.1-2.7-1.7-1.9-2.6-4.1-2.9-6.5-.1-1.1-.2-2.2-.2-3.3v-9.7c0-1.6.1-3.3.6-4.9 1.1-4.4 4-7.1 8.5-8.1 1.5-.3 3-.5 4.4-.5 2.2 0 4.5 0 6.7.1 1.4 0 2.8.3 4.2.8 3.6 1.2 5.9 3.8 6.9 7.4a18.16 18.16 0 0 1 .6 4.6v13 .5c-.5.1-10.1.2-11 .1v-.7-11.7c0-.4 0-.8-.1-1.3-.2-1.6-1.1-2.7-2.8-3-1.3-.2-2.7-.2-4.1 0-1.6.3-2.6 1.3-2.8 3 0 .4-.1.8-.1 1.1v7.9c0 .5 0 1 .1 1.6.2 1.3.9 2.6 1.9 3.5l1.2.9 11.4 8.2c1 .7 1.9 1.5 2.7 2.3 2.2 2.1 3.3 4.7 3.4 7.7 0 .2.1.4.1.5v15.4zm-43.4 11.1H433v-.8-23.3-1.1c-.2-2.3-1.5-3.6-3.9-3.7-1.1-.1-2.3 0-3.4 0h-2.4c-.1 1.6 0 3.3 0 4.9v4.8 19.3h-11.2V26.3h.5H431c1.7 0 3.4.2 5 .7 4 1.2 6.5 3.8 7.6 7.7.4 1.6.6 3.2.6 4.8v14.1c0 1.7-.2 3.4-.7 5-.8 2.5-2.4 4.4-4.8 5.6-.2.1-.5.2-.8.4l.9.3c1.1.4 2.1.9 3 1.8 1.2 1.1 1.8 2.5 2.1 4.1a18.7 18.7 0 0 1 .3 3.4v23.9c0-.2 0 0 0 .3zm-20.9-62.5v23.8c.1 0 .1 0 .2.1h5.6c2-.1 3.3-1.3 3.6-3.1.1-.5.1-1 .1-1.4V40.4c0-.5 0-.9-.1-1.4-.3-1.6-1.3-2.6-2.9-2.8-.4-.1-.9-.1-1.3-.1h-4.7c-.1-.2-.3-.2-.5-.2zm-132 34.5h10.8v.7 13.6c0 .5 0 1 .1 1.5.2 1.8 1.3 2.9 3.1 3.1 1.2.1 2.4.1 3.6 0 1.8-.2 2.8-1.2 3.1-3 .1-.4.1-.8.1-1.2v-9.7c0-.5 0-1.1-.1-1.6-.2-1.2-.7-2.2-1.5-3-.5-.5-1.1-1-1.6-1.4l-11.3-8.2c-1-.7-2-1.5-2.9-2.4-2-2-3.1-4.5-3.3-7.3-.1-1-.1-2-.1-3v-9.8c0-1.6.2-3.3.6-4.9 1.1-4.1 3.8-6.6 7.9-7.7 1.6-.4 3.3-.6 4.9-.6 2.3 0 4.5 0 6.8.1 1.4 0 2.8.3 4.2.8 3.5 1.2 5.8 3.6 6.8 7.1.4 1.5.7 3.1.7 4.7v13.2.5h-11v-.8-11.8c0-.5 0-.9-.1-1.4-.3-1.5-1.1-2.4-2.7-2.7-1.3-.2-2.6-.3-3.9 0-1.9.3-2.9 1.4-3 3.3-.1 3.2-.1 6.5 0 9.7.1 2 1.1 3.5 2.7 4.7l5.4 3.9 6.4 4.6c1.2.9 2.3 1.8 3.3 2.9 1.6 1.7 2.6 3.9 2.9 6.2.1 1.2.2 2.3.2 3.5v12c0 1.6-.2 3.2-.6 4.7-1.1 4.3-4 6.9-8.3 7.9-1.5.3-2.9.5-4.4.5h-5.6a20.74 20.74 0 0 1-5-.6c-4.1-1.1-6.7-3.8-7.7-7.9-.3-1.4-.5-2.9-.5-4.3V71.2v-.8zm110.9 28h-11.1l-1.5-11.3H378l-1.4 11.2c-.5.1-9.4.2-10.4 0l3.5-24.1 3.5-24.1 3.5-24.2h14.9l10.6 72.5zm-13.9-21.2l-4.4-35.6h-.1l-4.5 35.6h9zM139.7 98.4V26.1c.2 0 .3 0 .5-.1h15.3c1.7 0 3.4.2 5 .7 4 1.1 6.4 3.7 7.5 7.6.4 1.5.6 3.1.6 4.7v11.5c0 1.7-.2 3.5-.8 5.2-.8 2.5-2.5 4.3-4.9 5.4-.2.1-.3.2-.6.3.2.1.3.2.4.2 3.3 1.4 5.1 4 5.7 7.4a18.7 18.7 0 0 1 .3 3.4v12.9c0 2.1-.3 4.2-1.1 6.2-1.3 3.3-3.8 5.3-7.3 6.2-1.6.4-3.2.6-4.9.6H140c0 .1-.1.1-.3.1zm8.3-7.5h.8 5.9c.6 0 1.1 0 1.7-.1 2.2-.3 3.5-1.5 3.9-3.6.1-.6.2-1.2.2-1.9v-14c0-.9-.1-1.8-.3-2.7-.5-1.6-1.5-2.7-3.2-3.2-.8-.2-1.6-.3-2.4-.4h-6.1c-.2 0-.3 0-.5.1v25.8zm0-33.1h.6 5.4c.6 0 1.2 0 1.8-.1 2.4-.3 3.9-1.6 4.4-3.9.1-.7.2-1.5.2-2.2V39.3c0-.6 0-1.2-.1-1.8-.3-2-1.5-3.3-3.5-3.7-.6-.1-1.2-.2-1.8-.2h-6.1-.7v24.2zm77.7-31.9h10.7l11.3 72.4c-.5.1-7.2.2-8.3.1l-1.8-12h-13.5l-1.7 12h-8c0-.6 10.7-69.9 11.3-72.5zm10.9 52.9L231 39.4h-.1l-5.7 39.4h11.4zm126.2-52.7v10h-10v5.7 5.6 51h-11.2V36.2h-9.9c-.2-.5-.2-9.2-.1-10l31.2-.1zm-158.1 0v7.6h-14.5c-.2.5-.2 23-.1 24H204c.1.5.2 6.5.1 7.5h-7-7v25.4h.1.1 14.3.1c.1.4.2 6.2.1 7.5-.4.1-22.3.2-23.2 0V25.9h23.1zM271 98.4h-8.4V33.8c-.8-.1-1.5 0-2.2 0h-2.2-6.5c-.2-.5-.2-7 0-7.6H282v7.6h-10.9c-.1 1.8 0 3.6 0 5.4v5.4l-.1 53.8h0zM87.8 62l3.2 3.1 1.4 1.4c.3.3.4.6.4 1v4 14.4c0 .4-.1.7-.4 1a79.27 79.27 0 0 0-4.1 4.1c-.3.3-.5.4-.9.4H34h-.6V32.8h.8 23.5 29.5c.5 0 .8.1 1.2.5l4.1 4.1c.1.1.2.2.3.4.1.1.1.3.1.5V57c0 .3-.1.6-.4.8a75.45 75.45 0 0 0-4 4c-.3-.2-.5 0-.7.2zm-7.5 19.5c0-.1 0-.2.1-.2V69.7c0-.3-.1-.4-.3-.6l-1.8-1.7c-.3-.3-.5-.4-.9-.4h-7.2-.7c.1.3.1.5.2.8l2.7 7.9c0 .1.1.3.1.5l-10.2-6.3-10.2 6.3-.1-.1 3.8-11.3-10.1-7.5v24.2h34.6zM45.7 57.1h.7 11.4c.6 0 .6 0 .8-.6L62 46.3c.1-.2.1-.4.3-.7L66.2 57h.3 11.1c.3 0 .5-.1.7-.3l1.8-1.8c.1-.1.2-.2.3-.4s.1-.3.1-.5V42.9v-.5c-.1 0-.1-.1-.2-.1H46.4h-.3-.1l-.1.1-.2 14.7z"/></svg>