<svg xmlns="http://www.w3.org/2000/svg" viewBox="0 0 396.85039 198.4252"><defs><style>.cls-1{fill:#0fc900;}.cls-2{fill:#fff;}</style></defs><title>white_horizontal_logo_DreamDrum</title><g id="logo_horizontal"><g id="_2" data-name="2"><rect class="cls-1" x="71.5583" y="100.66844" width="11.95434" height="11.90025" rx="1.23982"/><rect class="cls-2" x="56.87506" y="100.64257" width="11.94521" height="11.91144" rx="1.23982"/><rect class="cls-2" x="71.55945" y="85.85651" width="11.96964" height="11.98899" rx="1.23982"/><rect class="cls-1" x="56.8324" y="85.86655" width="11.95556" height="12.00663" rx="1.23982"/></g><g id="_1" data-name="1"><rect class="cls-2" x="42.18558" y="100.66844" width="11.95434" height="11.90025" rx="1.23982"/><rect class="cls-1" x="27.50234" y="100.64257" width="11.94521" height="11.91144" rx="1.23982"/><rect class="cls-1" x="42.18673" y="85.85651" width="11.96964" height="11.98899" rx="1.23982"/><rect class="cls-2" x="27.45967" y="85.86655" width="11.95556" height="12.00663" rx="1.23982"/></g><path class="cls-1" d="M126.10069,99.36567A13.06956,13.06956,0,0,1,114.61387,112.35l-.062.0083H102.4083v-16.667h5.53906v11.12793h6.23145a7.563,7.563,0,0,0,6.22266-5.90039,7.65512,7.65512,0,0,0,.16015-1.55322,7.51216,7.51216,0,0,0-2.998-6.01563,7.47955,7.47955,0,0,0-3.04053-1.37793,7.65571,7.65571,0,0,0-1.15186-.14209H102.4083V86.27827l11.60694.043a13.08032,13.08032,0,0,1,12.08545,13.04444Z"/><path class="cls-2" d="M155.26377,112.35834H148.776l-.30371-.49853-6.71045-11.00342c-.16944.03711-.34131.06934-.50733.09815-.05908.01074-.125.022-.19775.03222-.03076.00586-.06348.01074-.09424.01514l-.01074.00146c-.083.0127-.166.02539-.25.03418-.03711.00586-.0752.01075-.11328.01514-.08789.01025-.17529.021-.26221.02881-.1001.01074-.19141.01855-.27783.02539l-.043.0083h-.05615c-.08447.00586-.16992.01025-.25537.01514-.01953.001-.0459.00341-.07715.00341-.0669.00342-.13379.00538-.20215.00782h-.00781l-.0625.00244-.06446.001-.01025.00146h-.00732c-.08643.001-.17188.002-.2583.002h-3.42286v11.21h-5.53906v-16.749H139.004a7.46672,7.46672,0,0,0,2.90478-.5791c.02637-.01025.05273-.022.07959-.03369a7.48227,7.48227,0,0,0,2.2915-1.55176,7.56823,7.56823,0,0,0,1.29053-1.69531h-3.66162V91.748h-11.8667v-5.5376h21.91406l.06836.96583c.022.3081.03223.61865.03223.92089a13.022,13.022,0,0,1-3.88525,9.29053c-.17237.16992-.33741.32324-.5.46729-.05664.0498-.1128.10058-.16944.14892-.00928.0083-.01953.01612-.02881.02539-.07177.06006-.14453.12012-.21923.18115-.0542.04493-.10987.09034-.165.13379-.03028.02442-.06153.04883-.09229.07178l-.02881.022c-.043.03321-.08691.0669-.13183.1001l7.46533,12.24072Z"/><path class="cls-2" d="M180.78184,86.27924v5.53955H157.4791v-4.501l.00147-1.03858Zm-17.76221,20.54h17.76221v5.53906H157.4791v-4.50048l.00147-1.03858V95.645l5.53906.03466h15.438v5.53907h-15.438Z"/><path class="cls-2" d="M193.25547,95.36372l3.48535,6.25585-5.64648,10.20313-.29639.53564h-6.94824l.853-1.5415Zm20.78223,16.99462h-6.94825l-.29589-.53564-5.2002-9.39795-2.54785-4.60205-.10156-.18359-3.48535-6.25538.01171-.021.27832-.50293,2.26758-4.0957.2666-.57569h1.33008l.25781.57324,2.26856,4.09815,11.0459,19.957Z"/><path class="cls-2" d="M240.694,86.09272v26.26562h-5.53907v-14.103l-2.93847,2.938-1.13184,1.13135-.30469.30469-1.01367,1.01172-.7334.73291-3.72754-3.72754-2.55859-2.55713-5.53906-5.53906V86.09272h1.37793l5.26953,5.269,5.17871,5.18018L239.483,86.09272ZM217.20762,98.00825l5.53906,5.5288v8.82081h-5.53906Z"/><path class="cls-1" d="M268.37559,99.36567A13.06964,13.06964,0,0,1,256.88926,112.35l-.0625.0083H244.6832v-16.667h5.53907v11.12793h6.23144A7.53838,7.53838,0,0,0,259.83848,93.35a7.48438,7.48438,0,0,0-3.041-1.37793A7.6493,7.6493,0,0,0,255.6461,91.83H244.6832V86.27827l11.60645.043a13.07626,13.07626,0,0,1,12.08594,13.04444Z"/><path class="cls-2" d="M297.53867,112.35834h-6.48828l-.30273-.49853-6.71094-11.00342c-.16895.03711-.3418.06934-.50781.09815-.0586.01074-.124.022-.19727.03222-.03125.00586-.06347.01074-.09472.01514l-.00977.00146c-.083.0127-.166.02539-.251.03418-.03711.00586-.07519.01075-.11328.01514-.08691.01025-.1748.021-.26172.02881-.10058.01074-.1914.01855-.27832.02539l-.042.0083h-.05664c-.084.00586-.16992.01025-.25488.01514-.01953.001-.04688.00341-.07813.00341-.0664.00342-.13379.00538-.20117.00782h-.00879l-.06152.00244-.06543.001-.00977.00146h-.00683c-.08692.001-.17188.002-.25879.002h-3.42285v11.21H272.317v-16.749h8.96192a7.46427,7.46427,0,0,0,2.90429-.5791c.02637-.01025.05372-.022.08008-.03369a7.496,7.496,0,0,0,2.292-1.55176,7.59528,7.59528,0,0,0,1.29-1.69531H284.1832V91.748H272.317v-5.5376h21.91407l.06836.96583c.02148.3081.03222.61865.03222.92089a13.02034,13.02034,0,0,1-3.88574,9.29053c-.17188.16992-.33691.32324-.499.46729-.05664.0498-.11328.10058-.16993.14892-.00976.0083-.01953.01612-.02929.02539-.07129.06006-.14356.12012-.21875.18115-.05469.04493-.10938.09034-.165.13379-.03027.02442-.06152.04883-.09277.07178l-.02833.022c-.043.03321-.08691.0669-.13183.1001l7.46484,12.24072Z"/><path class="cls-2" d="M321.93027,86.27045v16.30664a8.201,8.201,0,0,1-2.1748,5.61524,13.10859,13.10859,0,0,1-1.69922,1.53369,13.04909,13.04909,0,0,1-17.4414-1.55664,8.212,8.212,0,0,1-2.16407-5.60352V86.27045h5.53907v14.292a6.26038,6.26038,0,0,0,5.97363,6.25585c.07715.002.15527.00342.23242.00342.0752,0,.14941-.00146.22266-.00342a6.25223,6.25223,0,0,0,5.97168-6.25488v-14.293Z"/><path class="cls-2" d="M349.37363,86.09272v26.26562h-5.53906v-14.103l-2.93847,2.938-1.13184,1.13135-.30469.30469-1.01367,1.01172-.7334.73291-3.72754-3.72754-2.55859-2.55713-5.53906-5.53906V86.09272h1.37793l5.26953,5.269,5.17871,5.18018L348.1627,86.09272ZM325.88731,98.00825l5.53906,5.5288v8.82081h-5.53906Z"/><path class="cls-2" d="M375.62559,100.52875a7.90723,7.90723,0,0,1-6.86719,11.82959h-7.84473a7.54481,7.54481,0,0,1-7.55078-7.55175h5.42383a2.13006,2.13006,0,0,0,1.4375,2.01269h8.53418a2.36792,2.36792,0,1,0,0-4.73584h-7.48828a7.90723,7.90723,0,1,1,0-15.81445h7.97949a7.54477,7.54477,0,0,1,7.55078,7.55176h-5.42383a2.13006,2.13006,0,0,0-1.4375-2.0127h-8.66894a2.36817,2.36817,0,1,0,0,4.73633h7.48828A7.93409,7.93409,0,0,1,375.62559,100.52875Z"/></g></svg>