<svg id="logo_square" xmlns="http://www.w3.org/2000/svg" viewBox="0 0 198.4252 198.4252"><defs><style>.cls-1{fill:#fff;}.cls-2{fill:#0fc900;}</style></defs><title>white_square_logo_DreamDrum</title><g id="Letras"><g id="letras-2" data-name="letras"><path class="cls-1" d="M74.81289,174.03506a6.44576,6.44576,0,0,1,7.02735-4.86914l.03076.00293,5.81591,1.42773L85.72842,178.578l-2.65283-.65039,1.30761-5.3291-2.98437-.73243a3.72762,3.72762,0,0,0-3.67334,2.09473,3.783,3.783,0,0,0-.25977.72461,3.70762,3.70762,0,0,0,.729,3.2334,3.69381,3.69381,0,0,0,1.29443,1.01758,3.87391,3.87391,0,0,0,.53516.20312l5.25049,1.28809-.65235,2.65918-5.5542-1.38477a6.44938,6.44938,0,0,1-4.25537-7.667Z"/><path class="cls-1" d="M63.70547,162.22549l2.91162,1.3291.03369.28613.75733,6.3125c.084.01856.16748.03907.248.05957.02881.00782.06055.01563.09522.02637.01513.00391.03076.00781.04541.0127l.00488.00195c.04.01074.08008.02246.11963.03516.01758.00488.03564.01074.05371.0166.0415.01367.083.02636.12354.041.04736.01563.08984.03028.12988.04492l.021.00586.0254.01075c.03906.01464.07812.03027.11767.04589.00879.00391.02149.00782.03516.01465.03076.01172.06152.02442.09228.03711l.00391.002.02832.01171.0293.0127.00488.00195.00293.001c.03906.01758.07764.03418.1167.05176l1.53613.70117,2.29639-5.03027,2.48584,1.13476-3.43164,7.5166-4.02149-1.83593a3.68057,3.68057,0,0,0-1.42236-.335l-.04248-.00195a3.684,3.684,0,0,0-1.34668.22754,3.7259,3.7259,0,0,0-.92627.49609l1.64307.75v.001l5.32519,2.43066-1.13428,2.48536-9.835-4.48926.16748-.44727c.05323-.14258.11231-.28418.17432-.41992a6.41873,6.41873,0,0,1,3.647-3.374c.11182-.04.21729-.0752.31983-.10645.03564-.01074.07177-.02246.10693-.03222l.01807-.00586c.04443-.01172.08935-.02442.13574-.03614.0332-.00879.06738-.01855.10107-.02636.01856-.00489.0376-.00977.05616-.01368l.01757-.0039.07959-.01758-.84277-7.02246Z"/><path class="cls-1" d="M46.49307,166.02236l1.5459-2.25293,9.47558,6.50391-1.25586,1.83008-.29053.42187Zm12.95508-3.3955-7.22266-4.957,1.5459-2.25292,9.47558,6.5039-1.25586,1.83008-.29052.42187-3.11817,4.54395-2.24316-1.55957-6.27783-4.30859,1.54589-2.25293,6.27784,4.30859Z"/><path class="cls-1" d="M42.5419,144.29971l2.3955,2.44922-.08642.28906-1.52,5.07324-.74414,2.48535-.0293.09961L41.55361,158.081l-.01123.0039-.27343.0752-2.22559.6123-.29492.1045-.4585-.46875.11328-.28809.66211-2.21289,3.227-10.77539Zm1.17431,13.18554,1.00391-3.38476,5.54394-1.52832.291-.08008,2.39551,2.4502-.83741.23046Z"/><path class="cls-1" d="M24.85586,140.81143l10.85352-7.08692,1.49462,2.28906-5.82763,3.80469,2.00635.42188.77294.16211.208.04394.6919.14551.50049.10547-.53418,2.5459-.3667,1.74707-.79444,3.78418-2.66845,1.74218-.37159-.56933.75537-3.59961.74366-3.53711-7.13721-1.499Zm11.26025,6.49023.79-3.78125,3.645-2.37988,1.49463,2.28906Z"/><path class="cls-1" d="M24.601,124.1708a6.5492,6.5492,0,0,1,.89892-.30273,6.45884,6.45884,0,0,1,7.20215,3.0498l.01563.02637,2.31884,5.52441-7.583,3.18262-1.05762-2.51953,5.063-2.125-1.18994-2.835a3.72371,3.72371,0,0,0-6.8208,2.67871,3.82274,3.82274,0,0,0,.15527.55078l2.09375,4.98828-2.52637,1.05957L20.974,132.16006a6.45226,6.45226,0,0,1,3.627-7.98926Z"/><path class="cls-1" d="M27.48184,108.23135l.667,3.12988-.209.19727-4.61816,4.36914c.03516.07715.06836.15722.09961.23437.01074.02735.02344.05762.03564.0918l.01709.04394.00147.00489c.01465.03906.0293.07812.04248.11718.00684.01758.01269.03516.019.05372q.02124.06151.041.123c.01513.04688.02832.09082.04053.13184l.0083.01953.00586.02734c.01171.04.02246.08106.03369.1211.00244.00976.00634.02246.00927.03711.00879.03222.01661.06445.02491.09668l.00048.0039.00782.03028.00732.03027.00147.00488.00048.00391c.00977.041.01905.082.02784.124l.35205,1.65137,5.40771-1.15234.56934,2.67187L21.99551,122.12l-.92139-4.32324A3.68945,3.68945,0,0,0,20.496,116.456l-.02442-.03516a3.6923,3.6923,0,0,0-.98437-.94629,3.7375,3.7375,0,0,0-.95069-.44824l.37647,1.7666H18.9125l1.22022,5.72461-2.67139.56934-2.25342-10.57129.459-.13281c.14648-.042.29492-.07911.44091-.11036a6.48923,6.48923,0,0,1,1.40137-.1416,6.41394,6.41394,0,0,1,3.48,1.06153c.09961.06543.19043.1289.27686.19238.02978.02246.06005.04492.08935.0664l.01514.01172c.03613.02832.07275.05762.10986.08692.02735.02148.05469.04394.08154.0664.01465.01172.02979.02442.04395.03711l.01367.01172c.02051.0166.041.03418.062.05274l5.13721-4.85938Z"/><path class="cls-1" d="M14.15615,97.28408l8.03711-.35888a4.04374,4.04374,0,0,1,2.81543.94775,6.48955,6.48955,0,0,1,.793.80371,6.438,6.438,0,0,1-.38281,8.62988A4.05068,4.05068,0,0,1,22.705,108.497l-8.03125.35938-.12207-2.73047,7.044-.31445a3.089,3.089,0,0,0,2.95117-3.082c-.00049-.03809-.00147-.07715-.00342-.11524-.00146-.03711-.00391-.07324-.00635-.10937a3.08549,3.08549,0,0,0-3.21435-2.80567l-7.04444.31494Z"/><path class="cls-1" d="M15.77627,82.08047l12.84326,1.72607-.36377,2.7085-6.896-.92676,1.24365,1.62988.47851.62745.12891.16943.42822.56152.31006.40723-2.06738,1.57764-1.41846,1.083-3.07275,2.34473-3.15772-.42432.09034-.67382L17.246,90.66055l2.87353-2.1919-4.42285-5.79638Zm4.2832,12.26709,3.06739-2.34522,4.31347.57959-.36426,2.7085Z"/><path class="cls-1" d="M26.78848,70.18789a3.89916,3.89916,0,0,1,4.498,5.02637l-1.19775,3.67822a3.71933,3.71933,0,0,1-4.69336,2.38721l.82813-2.543a1.05031,1.05031,0,0,0,1.16308-.3667l1.30274-4.00146a1.16774,1.16774,0,0,0-2.22071-.72315l-1.14306,3.51123a3.91212,3.91212,0,0,1-2.06592,2.3291,3.90186,3.90186,0,0,1-4.5293-.915,3.91068,3.91068,0,0,1-.81982-3.82861l1.21826-3.7417a3.71987,3.71987,0,0,1,4.69385-2.38721l-.82813,2.543a1.05032,1.05032,0,0,0-1.16308.3667l-1.32373,4.06494a1.16774,1.16774,0,0,0,2.2207.72315l1.14307-3.51123A3.91429,3.91429,0,0,1,26.78848,70.18789Z"/><path class="cls-2" d="M102.55264,178.161a2.32514,2.32514,0,0,1-2.29688,2.49121,2.45772,2.45772,0,0,1-.04-4.90723A2.27173,2.27173,0,0,1,102.55264,178.161Z"/><path class="cls-1" d="M176.01455,81.89248a6.54426,6.54426,0,0,1-.9248.209,6.45806,6.45806,0,0,1-6.85157-3.76807l-.01269-.02832-1.74121-5.73145,7.86621-2.39013.79394,2.61425-5.25195,1.59571.89356,2.9414a3.71857,3.71857,0,0,0,6.84277-.33447,3.688,3.688,0,0,0,.21484-1.63281,3.874,3.874,0,0,0-.09863-.564l-1.57227-5.17382,2.62012-.79639,1.64453,5.48437a6.45332,6.45332,0,0,1-4.42285,7.57471Z"/><path class="cls-1" d="M171.53994,97.46963l-.34668-3.18213.22852-.17578,5.03906-3.87842c-.02637-.08105-.05176-.16406-.07519-.24365l-.02637-.09522-.01172-.04541-.001-.00537c-.01074-.04-.02148-.08008-.03125-.12109l-.01269-.0542c-.00977-.04248-.01953-.085-.02832-.12744-.01075-.04834-.01953-.09277-.02735-.13477l-.00586-.0205-.0039-.02784-.02051-.124-.00586-.03809-.01465-.09863v-.00391l-.00488-.03027-.00391-.03174-.001-.00488-.001-.00342-.01465-.127-.18262-1.67871-5.499.59765-.29492-2.71679,8.21582-.89356.47754,4.396a3.69935,3.69935,0,0,0,.43945,1.394l.02051.03711a3.69169,3.69169,0,0,0,.88379,1.04151,3.74946,3.74946,0,0,0,.90039.54248l-.19531-1.79639h.001l-.63379-5.8208,2.7168-.29541,1.16895,10.74951-.46973.085c-.15039.02734-.30176.04883-.4502.06494a6.42693,6.42693,0,0,1-4.76464-1.41015c-.09278-.0752-.17676-.14795-.25586-.22022-.02735-.0249-.05567-.05029-.082-.07519l-.01465-.0127c-.03321-.03223-.06641-.06445-.10059-.09814-.02441-.02393-.0498-.04883-.07422-.07373-.01367-.01368-.02637-.02735-.04-.04151l-.01172-.01318c-.01855-.019-.03808-.03858-.05664-.05908l-5.60644,4.31494Z"/><path class="cls-1" d="M174.06436,100.92178l-.54883,8.74707L170.788,109.497l.7207-11.47509,2.21582.13916.51172.03271,5.50293.34522-.18848,2.72656-.47753,7.60254-2.72754-.1709.47656-7.60254Zm9.5664,9.38183-2.72851-.17089.7207-11.47608,2.2168.13916.51172.03272Z"/><path class="cls-1" d="M166.99307,124.82412l.87793-3.31347.293-.07422,5.14062-1.292,2.51758-.63378.09961-.0254,3.4248-.87207.00879.00879.2041.19629,1.667,1.59864.24121.20019-.168.63477-.30664.0498-2.24121.56445-10.915,2.7461Zm10.7334-7.76465-3.42481.87207-4.15332-3.98339-.21777-.209.8789-3.31445.627.60156Z"/><path class="cls-1" d="M173.0126,141.80264l-11.626-5.71582,1.20606-2.45215,6.24121,3.06933-.66016-1.93945-.25488-.74707-.06836-.20117-.22754-.66895-.16406-.48437,2.46093-.83887,1.68848-.57519,3.65723-1.2461,2.85742,1.40528-.2998.60937-3.47852,1.18555-3.41992,1.165,2.35058,6.89843Zm-.16309-12.98828-3.65234,1.249-3.9043-1.91992,1.20508-2.45117Z"/><path class="cls-1" d="M158.84072,150.50186a6.6048,6.6048,0,0,1-.71777-.61817,6.45786,6.45786,0,0,1-1.05176-7.748l.01465-.02637,3.56738-4.81153,6.60352,4.89649-1.62695,2.19433-4.40918-3.26953-1.83008,2.46973a3.72222,3.72222,0,0,0,5.78125,4.498,3.87524,3.87524,0,0,0,.39453-.415l3.2207-4.34375,2.19922,1.63086-3.42578,4.58691a6.45346,6.45346,0,0,1-7.9502,1.44629A6.3549,6.3549,0,0,1,158.84072,150.50186Z"/><path class="cls-1" d="M143.69619,156.19131l2.34473-2.17676.27734.07813,6.11719,1.72558c.04883-.07031.09961-.13965.15039-.20605.01758-.02344.03809-.04981.06055-.07813.00879-.01269.01953-.02539.02929-.03711l.00293-.0039c.02637-.03223.05176-.06446.07911-.09668.01171-.01465.02343-.02832.03613-.043.02832-.0332.05664-.06641.085-.09863.03223-.03711.0625-.07129.0918-.10254l.01269-.01758.02051-.01856c.02832-.03027.05762-.06054.08691-.09082.00684-.00683.01563-.0166.02735-.02734q.03369-.03516.07031-.07031l.00293-.00293.02148-.02149.02246-.02246.00391-.0039.00195-.002c.03125-.03027.06153-.05859.09278-.08789l1.2373-1.14844-3.76074-4.05175,2.00195-1.8584,5.61914,6.05371-3.23925,3.00684a3.69076,3.69076,0,0,0-.85547,1.18359l-.01758.03906a3.70749,3.70749,0,0,0-.30762,1.33008,3.74791,3.74791,0,0,0,.10254,1.04492l1.32422-1.22851v.001l4.28906-3.98144,1.85742,2.001-7.91992,7.35352-.34863-.32617c-.11133-.10449-.21875-.21289-.32031-.32227a6.412,6.412,0,0,1-1.71289-4.66211c.00488-.11816.01269-.22949.02343-.33593.00391-.03711.00684-.07422.01172-.11133l.002-.01856c.00488-.0459.01171-.09179.01757-.13867l.01465-.10449c.00293-.01856.00586-.03711.00977-.05664l.00293-.01758c.00488-.02637.00879-.05273.01367-.08008l-6.80469-1.91894Z"/><path class="cls-1" d="M141.11025,173.25674l-4.4248-6.71289a4.048,4.048,0,0,1-.62891-2.90137,6.46578,6.46578,0,0,1,.28418-1.09277,6.435,6.435,0,0,1,6.47852-4.26563,6.45208,6.45208,0,0,1,1.124.17383,4.04806,4.04806,0,0,1,2.41114,1.71973l4.42187,6.708-2.28027,1.50292-3.87793-5.88378a3.0871,3.0871,0,0,0-4.15723-.95411c-.03223.01954-.06445.041-.09668.06153-.03027.02051-.06055.041-.09082.0625a3.082,3.082,0,0,0-.76074,4.19531l3.87793,5.88379Z"/><path class="cls-1" d="M127.21084,179.64541l-5.07617-11.91894,2.51367-1.07032,2.72559,6.39942.76562-1.90137.29492-.73145.0791-.19726.26465-.65527.19141-.47461,2.41211.97168,1.65527.666,3.584,1.44238,1.248,2.93067-.625.2666-3.40918-1.37305-3.35156-1.34961-2.72265,6.76172Zm8.35547-9.94629-3.582-1.43847-1.70508-4.00293,2.51367-1.07032Z"/><path class="cls-1" d="M111.3583,176.25772a3.90086,3.90086,0,0,1,2.02539-6.43653l3.77442-.84863a3.71926,3.71926,0,0,1,4.45117,2.81641l-2.61035.58691a1.04959,1.04959,0,0,0-.90918-.8125l-4.10743.92383a1.16812,1.16812,0,0,0,.5127,2.27929l3.60352-.81054a3.90717,3.90717,0,0,1,3.05859.58691,3.86476,3.86476,0,0,1,.67871.58692,3.90085,3.90085,0,0,1-2.02539,6.43652l-3.83984.86328a3.723,3.723,0,0,1-4.45118-2.81641l2.61036-.58691a1.04956,1.04956,0,0,0,.90918.8125l4.17187-.93848a1.16812,1.16812,0,1,0-.51269-2.27929l-3.60352.81054A3.91337,3.91337,0,0,1,111.3583,176.25772Z"/><path class="cls-1" d="M166.57022,57.61709a2.3245,2.3245,0,0,1,3.29394.794,2.45739,2.45739,0,1,1-3.29394-.794Z"/><path class="cls-2" d="M46.56289,40.76992a6.44711,6.44711,0,0,1,.7207,8.52051l-.01806.0249-4.13526,4.33252L37.1835,47.97207l1.88623-1.97656,3.97021,3.78955,2.12256-2.22315a3.73033,3.73033,0,0,0,.01367-4.22949,3.78964,3.78964,0,0,0-.49951-.58593,3.70465,3.70465,0,0,0-3.16748-.979,3.69263,3.69263,0,0,0-1.96973.978l-3.73339,3.91162L33.8251,44.766l3.96777-4.12647a6.45052,6.45052,0,0,1,8.77.13037Z"/><path class="cls-2" d="M62.331,36.98965l-2.59815,1.86816-.26513-.1123-5.856-2.47363c-.05713.06347-.1167.126-.17481.18554-.0205.021-.04394.04444-.06982.06934-.01074.01172-.02246.02246-.03369.03369l-.00391.00342c-.02929.02881-.05908.05762-.09033.08594l-.041.03857c-.03174.0293-.064.05859-.0962.08691-.03759.03321-.07177.0625-.104.09034l-.01514.01513-.02246.0166-.09765.07959c-.00782.00586-.01758.01465-.03028.02344-.02588.02051-.05176.041-.07861.06152l-.00293.00245-.02441.01855-.0254.019-.0039.00342-.00293.002c-.03418.0254-.06836.05079-.10254.07569l-1.37109.98535,3.22851,4.48926-2.21826,1.59521-4.82324-6.70752,3.58887-2.58056a3.68688,3.68688,0,0,0,.99609-1.06836l.02246-.03662a3.733,3.733,0,0,0,.499-2.332l-1.46631,1.05468v-.00049l-4.75244,3.41748-1.59472-2.21777,8.77588-6.311.30566.36718c.09717.11719.19092.23828.27783.35938A6.42277,6.42277,0,0,1,55.17959,33.037c-.02.11719-.042.22608-.06543.33106-.0083.03613-.0166.07275-.02539.1084l-.00391.01855-.03564.13574c-.00879.03321-.01807.06739-.02783.10108-.00489.01806-.01026.03662-.01612.05517l-.00537.01709c-.00732.02539-.01513.05176-.02392.07813l6.51465,2.752Z"/><path class="cls-2" d="M67.60488,20.1669l1.186,2.46L58.44131,27.61709l-.96387-1.99853-.22168-.46192ZM64.11416,33.09316l7.88916-3.80371,1.186,2.46045L62.83975,36.73965l-.96387-1.99854-.22168-.46191-2.39307-4.96289,2.46778-1.17041,6.85693-3.30615,1.186,2.46-6.85694,3.30615Z"/><path class="cls-2" d="M76.412,21.99209l2.43408,2.56055-1.44384,5.56885-.07569.29248-3.31982.854.21826-.84131ZM88.43008,27.557l-3.31983.85449-.20751-.21972-3.63965-3.85059-1.78272-1.88574-.07129-.0752L76.975,19.81973l.00293-.01123.07129-.27442.57959-2.23584.05664-.30761.63574-.16358.19336.24219,1.58789,1.6792,7.73047,8.17724Z"/><path class="cls-2" d="M100.265,13.98281l.72119,12.93506-2.728.15186L97.871,20.1249l-1.36621,1.52735-.52637.58789-.1416.15869-.47119.52588-.34131.38135-1.938-1.7334-1.33008-1.189-2.87988-2.57617-.17725-3.18018.67871-.03759,2.73926,2.45019L94.81,19.44863,99.66885,14.016Zm-11.23877,6.5127,2.87939,2.5708.24219,4.34375-2.72754.15234Z"/><path class="cls-2" d="M114.76553,22.03066a6.5626,6.5626,0,0,1-.1836.92969,6.45543,6.45543,0,0,1-6.2207,4.73194H108.33l-5.94238-.73194,1.00488-8.15625,2.71094.334-.6709,5.44531,3.0498.376a3.717,3.717,0,0,0,2.46778-6.38721,3.68169,3.68169,0,0,0-1.4043-.85791,3.727,3.727,0,0,0-.55566-.13867l-5.36426-.66114.334-2.71679,5.67774.7207a6.4458,6.4458,0,0,1,5.12793,7.1123Z"/><path class="cls-2" d="M127.18545,32.44522l-3.04688-.97559-.06738-.27979-1.49707-6.17675c-.08594-.0083-.1709-.01905-.2539-.03028-.0293-.0039-.06153-.0083-.09766-.01465l-.0459-.00683-.00586-.00147c-.04-.00634-.08105-.01269-.12207-.021q-.02783-.0044-.05566-.01026c-.043-.0083-.08594-.0166-.127-.02587-.04882-.01026-.09277-.02-.13476-.02979l-.02149-.00244-.02636-.00879c-.04-.00977-.08106-.02051-.12207-.03125-.00977-.00244-.02246-.00537-.03711-.00977-.03125-.00879-.06348-.01757-.09571-.02685l-.0039-.001-.0293-.0083-.03125-.00928-.00488-.001-.00293-.001c-.041-.01269-.08106-.0249-.12207-.03809l-1.60742-.51464-1.68555,5.26513-2.60156-.833,2.51855-7.86622,4.209,1.34766a3.69124,3.69124,0,0,0,1.45117.16455l.043-.00391a3.73068,3.73068,0,0,0,2.16992-.98632l-1.71973-.55078.001-.00049-5.57324-1.78418.832-2.60108,10.293,3.29541-.11329.46387c-.03613.14795-.07812.29541-.124.437a6.4163,6.4163,0,0,1-3.22168,3.7793c-.10644.05371-.207.10107-.30469.14453-.03418.01465-.06836.03027-.10253.04443l-.01661.00733c-.043.01758-.08593.03467-.13086.05224-.03222.01319-.06445.02588-.09765.03809-.01758.00684-.03613.01367-.05371.01953l-.0166.00635c-.0254.00928-.05079.01807-.07715.02734l1.665,6.8711Z"/><path class="cls-2" d="M143.329,26.34658l-3.69335,7.14795a4.04866,4.04866,0,0,1-2.22559,1.96875,6.48917,6.48917,0,0,1-1.0918.2876,6.44166,6.44166,0,0,1-6.89453-3.56738,6.46374,6.46374,0,0,1-.39844-1.06592,4.05294,4.05294,0,0,1,.32032-2.94678l3.6914-7.14258,2.42871,1.2544-3.23828,6.26513a3.08948,3.08948,0,0,0,1.20117,4.09473c.03418.01856.06836.03711.10157.05469.0332.01709.06543.0332.09863.04883a3.08463,3.08463,0,0,0,4.03418-1.38916l3.23828-6.26514Z"/><path class="cls-2" d="M142.92666,32.92568l.5,3.82862-2.65625,3.44726-2.165-1.668Zm12.76563,2.41553-7.90918,10.26465-2.16407-1.668,4.2461-5.51123-2.03223.26318-.7832.10108-.21094.02734-.7002.09033-.50781.06543-.334-2.5791-.23047-1.76953-.49609-3.83252,1.94433-2.52392.53809.415.47265,3.6455.46387,3.584,7.23047-.937Z"/><path class="cls-2" d="M160.52627,50.81338a3.90125,3.90125,0,0,1-6.60254,1.3999L151.328,49.3417a3.72373,3.72373,0,0,1,.26562-5.2627l1.79492,1.98536a1.05159,1.05159,0,0,0-.26074,1.19238l2.82324,3.124a1.16884,1.16884,0,0,0,1.73438-1.56738l-2.47852-2.74072a3.90182,3.90182,0,1,1,5.78907-5.23291l2.64062,2.9209a3.72372,3.72372,0,0,1-.26562,5.26269L161.57607,47.038a1.04912,1.04912,0,0,0,.26075-1.1919l-2.86817-3.17334a1.16832,1.16832,0,1,0-1.7334,1.5669l2.47754,2.74121A3.91412,3.91412,0,0,1,160.52627,50.81338Z"/><path class="cls-1" d="M29.73916,61.44229a2.32465,2.32465,0,0,1-.94531-3.25391,2.45768,2.45768,0,0,1,4.22168,2.502A2.272,2.272,0,0,1,29.73916,61.44229Z"/></g></g><g id="colores"><g id="_2" data-name="2"><rect class="cls-2" x="131.35248" y="102.35539" width="23.91307" height="23.80486" rx="2.4801"/><rect class="cls-1" x="101.98061" y="102.30366" width="23.89481" height="23.82724" rx="2.4801"/><rect class="cls-1" x="131.35478" y="72.72611" width="23.94368" height="23.98238" rx="2.4801"/><rect class="cls-2" x="101.89527" y="72.74619" width="23.91551" height="24.01766" rx="2.4801"/></g><g id="_1" data-name="1"><rect class="cls-1" x="72.59626" y="102.35539" width="23.91307" height="23.80486" rx="2.4801"/><rect class="cls-2" x="43.22439" y="102.30366" width="23.89481" height="23.82724" rx="2.4801"/><rect class="cls-2" x="72.59856" y="72.72611" width="23.94368" height="23.98238" rx="2.4801"/><rect class="cls-1" x="43.13905" y="72.74619" width="23.91551" height="24.01766" rx="2.4801"/></g></g></svg>